<svg width="8" height="10" viewBox="0 0 8 10" fill="none" xmlns="http://www.w3.org/2000/svg">
<path d="M6.77206 5.00034L3.67406 1.85784C3.47856 1.66084 3.47856 1.34084 3.67406 1.14384C3.86956 0.946844 4.18606 0.946844 4.38106 1.14384L7.83056 4.64334C8.01806 4.83284 8.01906 5.16734 7.83056 5.35784L4.38056 8.85734C4.18556 9.05434 3.86856 9.05434 3.67356 8.85734C3.47806 8.66034 3.47806 8.34034 3.67356 8.14334L6.77206 5.00034Z" fill="#121313"/>
<path d="M3.27206 5.00034L0.174057 1.85784C-0.0214424 1.66084 -0.0214424 1.34084 0.174057 1.14384C0.369557 0.946844 0.686057 0.946844 0.881057 1.14384L4.33056 4.64334C4.51806 4.83284 4.51906 5.16734 4.33056 5.35784L0.881057 8.85734C0.685557 9.05434 0.369058 9.05434 0.174057 8.85734C-0.0214424 8.66034 -0.0214424 8.34034 0.174057 8.14334L3.27206 5.00034Z" fill="#121313"/>
</svg>
