<svg width="8" height="10" viewBox="0 0 8 10" fill="none" xmlns="http://www.w3.org/2000/svg">
<path d="M1.22794 5.00034L4.32594 1.85784C4.52144 1.66084 4.52144 1.34084 4.32594 1.14384C4.13044 0.946844 3.81394 0.946844 3.61894 1.14384L0.169443 4.64334C-0.0180574 4.83284 -0.0190574 5.16734 0.169443 5.35784L3.61944 8.85734C3.81444 9.05434 4.13144 9.05434 4.32644 8.85734C4.52194 8.66034 4.52194 8.34034 4.32644 8.14334L1.22794 5.00034Z" fill="#121313"/>
<path d="M4.72794 5.00034L7.82594 1.85784C8.02144 1.66084 8.02144 1.34084 7.82594 1.14384C7.63044 0.946844 7.31394 0.946844 7.11894 1.14384L3.66944 4.64334C3.48194 4.83284 3.48094 5.16734 3.66944 5.35784L7.11894 8.85734C7.31444 9.05434 7.63094 9.05434 7.82594 8.85734C8.02144 8.66034 8.02144 8.34034 7.82594 8.14334L4.72794 5.00034Z" fill="#121313"/>
</svg>
